<svg width="93" height="16" viewBox="0 0 93 16" fill="none" xmlns="http://www.w3.org/2000/svg">
<path d="M0.43125 15V1.04H2.11125V13.54H8.73125V15H0.43125ZM13.3034 1.04V9.42C13.3034 10.1 13.3234 10.7067 13.3634 11.24C13.4034 11.7733 13.5101 12.2333 13.6834 12.62C13.8568 12.9933 14.1234 13.28 14.4834 13.48C14.8568 13.68 15.3701 13.78 16.0234 13.78C16.6768 13.78 17.1834 13.68 17.5434 13.48C17.9168 13.28 18.1901 12.9933 18.3634 12.62C18.5368 12.2333 18.6434 11.7733 18.6834 11.24C18.7234 10.7067 18.7434 10.1 18.7434 9.42V1.04H20.4234V9.02C20.4234 10.06 20.3701 10.9667 20.2634 11.74C20.1701 12.5133 19.9634 13.16 19.6434 13.68C19.3368 14.2 18.8901 14.5933 18.3034 14.86C17.7301 15.1133 16.9701 15.24 16.0234 15.24C15.0768 15.24 14.3101 15.1133 13.7234 14.86C13.1501 14.5933 12.7034 14.2 12.3834 13.68C12.0768 13.16 11.8701 12.5133 11.7634 11.74C11.6701 10.9667 11.6234 10.06 11.6234 9.02V1.04H13.3034ZM25.2756 3.18H25.1356V15H23.6156V1.04H25.9956L30.7556 12.74H30.8956V1.04H32.4156V15H30.0356L25.2756 3.18ZM43.6278 15L42.4478 11.02H37.5478L36.3678 15H34.6278L38.9078 1.04H41.1278L45.4078 15H43.6278ZM40.0878 2.82H39.9078L37.9478 9.56H42.0478L40.0878 2.82ZM51.96 15.24C50.7067 15.24 49.68 15.0133 48.88 14.56C48.08 14.0933 47.42 13.5 46.9 12.78L48.12 11.78C48.6667 12.46 49.24 12.9667 49.84 13.3C50.4533 13.6333 51.18 13.8 52.02 13.8C53.0333 13.8 53.8067 13.5667 54.34 13.1C54.8733 12.6333 55.14 11.98 55.14 11.14C55.14 10.46 54.9467 9.93333 54.56 9.56C54.1733 9.17333 53.5 8.9 52.54 8.74L50.98 8.48C50.3 8.36 49.7267 8.18 49.26 7.94C48.8067 7.7 48.44 7.41333 48.16 7.08C47.88 6.73333 47.68 6.36 47.56 5.96C47.44 5.54667 47.38 5.12 47.38 4.68C47.38 3.4 47.8 2.43333 48.64 1.78C49.48 1.12667 50.6133 0.799999 52.04 0.799999C53.16 0.799999 54.1 0.986666 54.86 1.36C55.6333 1.73333 56.2533 2.26 56.72 2.94L55.54 3.96C55.1533 3.45333 54.6867 3.04 54.14 2.72C53.5933 2.4 52.8867 2.24 52.02 2.24C51.0733 2.24 50.3467 2.44 49.84 2.84C49.3333 3.24 49.08 3.84 49.08 4.64C49.08 5.26667 49.2667 5.78 49.64 6.18C50.0267 6.56667 50.7133 6.84667 51.7 7.02L53.2 7.28C53.88 7.4 54.4533 7.58 54.92 7.82C55.3867 8.06 55.76 8.34667 56.04 8.68C56.3333 9.01333 56.54 9.38667 56.66 9.8C56.78 10.2133 56.84 10.6467 56.84 11.1C56.84 12.3933 56.4133 13.4067 55.56 14.14C54.72 14.8733 53.52 15.24 51.96 15.24ZM59.7922 15L58.6922 1.04H60.1922L60.7722 9.04L61.0722 13.26H61.2322L63.0722 4.68H64.9522L66.7922 13.26H66.9522L67.2522 9.04L67.8322 1.04H69.2922L68.1922 15H65.7722L64.0722 6.66H63.9122L62.2122 15H59.7922ZM79.6044 15L78.4244 11.02H73.5244L72.3444 15H70.6044L74.8844 1.04H77.1044L81.3844 15H79.6044ZM76.0644 2.82H75.8844L73.9244 9.56H78.0244L76.0644 2.82ZM83.7766 15V1.04H88.8566C90.1499 1.04 91.1366 1.39333 91.8166 2.1C92.4966 2.80667 92.8366 3.79333 92.8366 5.06C92.8366 6.32667 92.4966 7.31333 91.8166 8.02C91.1366 8.72667 90.1499 9.08 88.8566 9.08H85.4566V15H83.7766ZM85.4566 7.62H88.8166C89.5232 7.62 90.0699 7.44667 90.4566 7.1C90.8566 6.74 91.0566 6.23333 91.0566 5.58V4.54C91.0566 3.88667 90.8566 3.38667 90.4566 3.04C90.0699 2.68 89.5232 2.5 88.8166 2.5H85.4566V7.62Z" fill="white"/>
<path d="M0.43125 15H-0.0687499V15.5H0.43125V15ZM0.43125 1.04V0.54H-0.0687499V1.04H0.43125ZM2.11125 1.04H2.61125V0.54H2.11125V1.04ZM2.11125 13.54H1.61125V14.04H2.11125V13.54ZM8.73125 13.54H9.23125V13.04H8.73125V13.54ZM8.73125 15V15.5H9.23125V15H8.73125ZM0.93125 15V1.04H-0.0687499V15H0.93125ZM0.43125 1.54H2.11125V0.54H0.43125V1.54ZM1.61125 1.04V13.54H2.61125V1.04H1.61125ZM2.11125 14.04H8.73125V13.04H2.11125V14.04ZM8.23125 13.54V15H9.23125V13.54H8.23125ZM8.73125 14.5H0.43125V15.5H8.73125V14.5ZM13.3034 1.04H13.8034V0.54H13.3034V1.04ZM13.3634 11.24L13.862 11.2026L13.862 11.2026L13.3634 11.24ZM13.6834 12.62L13.2271 12.8245L13.2299 12.8306L13.6834 12.62ZM14.4834 13.48L14.2406 13.9171L14.2473 13.9207L14.4834 13.48ZM17.5434 13.48L17.3073 13.0392L17.3006 13.0429L17.5434 13.48ZM18.3634 12.62L18.817 12.8306L18.8197 12.8245L18.3634 12.62ZM18.6834 11.24L19.182 11.2774L19.182 11.2774L18.6834 11.24ZM18.7434 1.04V0.54H18.2434V1.04H18.7434ZM20.4234 1.04H20.9234V0.54H20.4234V1.04ZM20.2634 11.74L19.7681 11.6717L19.767 11.6801L20.2634 11.74ZM19.6434 13.68L19.2175 13.4179L19.2128 13.426L19.6434 13.68ZM18.3034 14.86L18.5055 15.3174L18.5103 15.3152L18.3034 14.86ZM13.7234 14.86L13.5125 15.3135L13.5252 15.319L13.7234 14.86ZM12.3834 13.68L11.9527 13.934L11.9576 13.942L12.3834 13.68ZM11.7634 11.74L11.267 11.7999L11.2681 11.8083L11.7634 11.74ZM11.6234 1.04V0.54H11.1234V1.04H11.6234ZM12.8034 1.04V9.42H13.8034V1.04H12.8034ZM12.8034 9.42C12.8034 10.1093 12.8237 10.7288 12.8648 11.2774L13.862 11.2026C13.8232 10.6845 13.8034 10.0907 13.8034 9.42H12.8034ZM12.8648 11.2774C12.9081 11.854 13.0249 12.3732 13.2272 12.8245L14.1397 12.4155C13.9953 12.0934 13.8988 11.6927 13.862 11.2026L12.8648 11.2774ZM13.2299 12.8306C13.4478 13.2998 13.7883 13.6658 14.2406 13.9171L14.7263 13.0429C14.4586 12.8942 14.2657 12.6868 14.1369 12.4094L13.2299 12.8306ZM14.2473 13.9207C14.7222 14.1752 15.3284 14.28 16.0234 14.28V13.28C15.4118 13.28 14.9913 13.1848 14.7195 13.0393L14.2473 13.9207ZM16.0234 14.28C16.7168 14.28 17.3207 14.1757 17.7863 13.9171L17.3006 13.0429C17.0462 13.1843 16.6368 13.28 16.0234 13.28V14.28ZM17.7795 13.9207C18.2454 13.6712 18.5966 13.3052 18.8169 12.8306L17.9099 12.4094C17.7836 12.6815 17.5881 12.8888 17.3073 13.0393L17.7795 13.9207ZM18.8197 12.8245C19.022 12.3732 19.1388 11.854 19.182 11.2774L18.1848 11.2026C18.1481 11.6927 18.0515 12.0934 17.9072 12.4155L18.8197 12.8245ZM19.182 11.2774C19.2232 10.7288 19.2434 10.1093 19.2434 9.42H18.2434C18.2434 10.0907 18.2237 10.6845 18.1848 11.2026L19.182 11.2774ZM19.2434 9.42V1.04H18.2434V9.42H19.2434ZM18.7434 1.54H20.4234V0.54H18.7434V1.54ZM19.9234 1.04V9.02H20.9234V1.04H19.9234ZM19.9234 9.02C19.9234 10.0441 19.8708 10.927 19.7681 11.6717L20.7587 11.8083C20.8694 11.0063 20.9234 10.0759 20.9234 9.02H19.9234ZM19.767 11.6801C19.6801 12.4008 19.4908 12.9739 19.2176 13.418L20.0693 13.942C20.436 13.3461 20.6602 12.6258 20.7598 11.7999L19.767 11.6801ZM19.2128 13.426C18.9619 13.8515 18.5964 14.1776 18.0965 14.4048L18.5103 15.3152C19.1838 15.0091 19.7117 14.5485 20.0741 13.934L19.2128 13.426ZM18.1014 14.4027C17.6157 14.6173 16.9327 14.74 16.0234 14.74V15.74C17.0075 15.74 17.8445 15.6094 18.5055 15.3173L18.1014 14.4027ZM16.0234 14.74C15.115 14.74 14.4231 14.6175 13.9217 14.401L13.5252 15.319C14.1971 15.6092 15.0385 15.74 16.0234 15.74V14.74ZM13.9343 14.4066C13.4465 14.1797 13.076 13.8514 12.8093 13.418L11.9576 13.942C12.3309 14.5486 12.8537 15.0069 13.5126 15.3134L13.9343 14.4066ZM12.8141 13.426C12.5494 12.9771 12.3589 12.3978 12.2587 11.6717L11.2681 11.8083C11.3813 12.6288 11.6042 13.3429 11.9528 13.934L12.8141 13.426ZM12.2598 11.6801C12.1695 10.9319 12.1234 10.0462 12.1234 9.02H11.1234C11.1234 10.0738 11.1707 11.0014 11.267 11.7999L12.2598 11.6801ZM12.1234 9.02V1.04H11.1234V9.02H12.1234ZM11.6234 1.54H13.3034V0.54H11.6234V1.54ZM25.2756 3.18L25.7394 2.99322L25.6133 2.68H25.2756V3.18ZM25.1356 3.18V2.68H24.6356V3.18H25.1356ZM25.1356 15V15.5H25.6356V15H25.1356ZM23.6156 15H23.1156V15.5H23.6156V15ZM23.6156 1.04V0.54H23.1156V1.04H23.6156ZM25.9956 1.04L26.4588 0.851578L26.332 0.54H25.9956V1.04ZM30.7556 12.74L30.2925 12.9284L30.4192 13.24H30.7556V12.74ZM30.8956 12.74V13.24H31.3956V12.74H30.8956ZM30.8956 1.04V0.54H30.3956V1.04H30.8956ZM32.4156 1.04H32.9156V0.54H32.4156V1.04ZM32.4156 15V15.5H32.9156V15H32.4156ZM30.0356 15L29.5718 15.1868L29.698 15.5H30.0356V15ZM25.2756 2.68H25.1356V3.68H25.2756V2.68ZM24.6356 3.18V15H25.6356V3.18H24.6356ZM25.1356 14.5H23.6156V15.5H25.1356V14.5ZM24.1156 15V1.04H23.1156V15H24.1156ZM23.6156 1.54H25.9956V0.54H23.6156V1.54ZM25.5325 1.22842L30.2925 12.9284L31.2188 12.5516L26.4588 0.851578L25.5325 1.22842ZM30.7556 13.24H30.8956V12.24H30.7556V13.24ZM31.3956 12.74V1.04H30.3956V12.74H31.3956ZM30.8956 1.54H32.4156V0.54H30.8956V1.54ZM31.9156 1.04V15H32.9156V1.04H31.9156ZM32.4156 14.5H30.0356V15.5H32.4156V14.5ZM30.4994 14.8132L25.7394 2.99322L24.8118 3.36678L29.5718 15.1868L30.4994 14.8132ZM43.6278 15L43.1484 15.1421L43.2545 15.5H43.6278V15ZM42.4478 11.02L42.9272 10.8779L42.8211 10.52H42.4478V11.02ZM37.5478 11.02V10.52H37.1745L37.0684 10.8779L37.5478 11.02ZM36.3678 15V15.5H36.7411L36.8472 15.1421L36.3678 15ZM34.6278 15L34.1498 14.8534L33.9515 15.5H34.6278V15ZM38.9078 1.04V0.54H38.5381L38.4298 0.893438L38.9078 1.04ZM41.1278 1.04L41.6058 0.893438L41.4975 0.54H41.1278V1.04ZM45.4078 15V15.5H46.0841L45.8859 14.8534L45.4078 15ZM40.0878 2.82L40.5679 2.68038L40.4631 2.32H40.0878V2.82ZM39.9078 2.82V2.32H39.5325L39.4277 2.68038L39.9078 2.82ZM37.9478 9.56L37.4677 9.42038L37.2817 10.06H37.9478V9.56ZM42.0478 9.56V10.06H42.7139L42.5279 9.42038L42.0478 9.56ZM44.1072 14.8579L42.9272 10.8779L41.9684 11.1621L43.1484 15.1421L44.1072 14.8579ZM42.4478 10.52H37.5478V11.52H42.4478V10.52ZM37.0684 10.8779L35.8884 14.8579L36.8472 15.1421L38.0272 11.1621L37.0684 10.8779ZM36.3678 14.5H34.6278V15.5H36.3678V14.5ZM35.1058 15.1466L39.3858 1.18656L38.4298 0.893438L34.1498 14.8534L35.1058 15.1466ZM38.9078 1.54H41.1278V0.54H38.9078V1.54ZM40.6498 1.18656L44.9298 15.1466L45.8859 14.8534L41.6058 0.893438L40.6498 1.18656ZM45.4078 14.5H43.6278V15.5H45.4078V14.5ZM40.0878 2.32H39.9078V3.32H40.0878V2.32ZM39.4277 2.68038L37.4677 9.42038L38.4279 9.69962L40.3879 2.95962L39.4277 2.68038ZM37.9478 10.06H42.0478V9.06H37.9478V10.06ZM42.5279 9.42038L40.5679 2.68038L39.6077 2.95962L41.5677 9.69962L42.5279 9.42038ZM48.88 14.56L48.628 14.9919L48.6335 14.995L48.88 14.56ZM46.9 12.78L46.583 12.3933L46.2193 12.6915L46.4947 13.0727L46.9 12.78ZM48.12 11.78L48.5097 11.4667L48.1934 11.0733L47.803 11.3933L48.12 11.78ZM49.84 13.3L49.5972 13.7371L49.6012 13.7393L49.84 13.3ZM54.34 13.1L54.6693 13.4763L54.6693 13.4763L54.34 13.1ZM54.56 9.56L54.2064 9.91361L54.2127 9.9197L54.56 9.56ZM52.54 8.74L52.6222 8.2468L52.6222 8.2468L52.54 8.74ZM50.98 8.48L50.8931 8.97241L50.8978 8.9732L50.98 8.48ZM49.26 7.94L49.026 8.38192L49.0313 8.38464L49.26 7.94ZM48.16 7.08L47.771 7.39423L47.7771 7.4016L48.16 7.08ZM47.56 5.96L47.0798 6.09941L47.0811 6.10367L47.56 5.96ZM48.64 1.78L48.947 2.17468L48.947 2.17468L48.64 1.78ZM54.86 1.36L54.6395 1.80879L54.6426 1.81028L54.86 1.36ZM56.72 2.94L57.047 3.31827L57.3853 3.02581L57.1323 2.65708L56.72 2.94ZM55.54 3.96L55.1425 4.26334L55.4649 4.6858L55.867 4.33827L55.54 3.96ZM54.14 2.72L53.8874 3.15151L53.8874 3.15151L54.14 2.72ZM49.84 2.84L49.5302 2.44756L49.5302 2.44756L49.84 2.84ZM49.64 6.18L49.2745 6.52116L49.2804 6.52746L49.2864 6.53355L49.64 6.18ZM51.7 7.02L51.6135 7.51246L51.6146 7.51265L51.7 7.02ZM53.2 7.28L53.2869 6.78761L53.2854 6.78735L53.2 7.28ZM54.92 7.82L55.1487 7.37536L55.1487 7.37536L54.92 7.82ZM56.04 8.68L55.657 9.00168L55.6646 9.01031L56.04 8.68ZM56.66 9.8L57.1402 9.66059L57.1402 9.66059L56.66 9.8ZM55.56 14.14L55.2341 13.7608L55.2312 13.7633L55.56 14.14ZM51.96 14.74C50.763 14.74 49.8289 14.523 49.1265 14.125L48.6335 14.995C49.5311 15.5036 50.6503 15.74 51.96 15.74V14.74ZM49.1319 14.1281C48.3896 13.6951 47.7827 13.1483 47.3053 12.4873L46.4947 13.0727C47.0573 13.8517 47.7704 14.4916 48.6281 14.9919L49.1319 14.1281ZM47.217 13.1667L48.437 12.1667L47.803 11.3933L46.583 12.3933L47.217 13.1667ZM47.7303 12.0933C48.3069 12.8105 48.9276 13.3651 49.5972 13.7371L50.0828 12.8629C49.5524 12.5682 49.0264 12.1095 48.5097 11.4667L47.7303 12.0933ZM49.6012 13.7393C50.3014 14.1198 51.1135 14.3 52.02 14.3V13.3C51.2465 13.3 50.6053 13.1468 50.0788 12.8607L49.6012 13.7393ZM52.02 14.3C53.103 14.3 54.0124 14.0511 54.6693 13.4763L54.0107 12.7237C53.601 13.0823 52.9636 13.3 52.02 13.3V14.3ZM54.6693 13.4763C55.3314 12.8969 55.64 12.0948 55.64 11.14H54.64C54.64 11.8652 54.4153 12.3697 54.0107 12.7237L54.6693 13.4763ZM55.64 11.14C55.64 10.3624 55.4159 9.69136 54.9073 9.2003L54.2127 9.9197C54.4774 10.1753 54.64 10.5576 54.64 11.14H55.64ZM54.9136 9.20645C54.4151 8.70797 53.6145 8.41219 52.6222 8.2468L52.4578 9.2332C53.3855 9.38781 53.9316 9.63869 54.2064 9.91355L54.9136 9.20645ZM52.6222 8.2468L51.0622 7.9868L50.8978 8.9732L52.4578 9.2332L52.6222 8.2468ZM51.0669 7.98761C50.4216 7.87374 49.8992 7.70649 49.4887 7.49536L49.0313 8.38464C49.5541 8.65351 50.1784 8.84626 50.8931 8.97239L51.0669 7.98761ZM49.4939 7.49811C49.0876 7.28296 48.7747 7.03446 48.5429 6.7584L47.7771 7.4016C48.1053 7.79221 48.5258 8.11704 49.0261 8.38189L49.4939 7.49811ZM48.549 6.76583C48.307 6.4662 48.1391 6.15012 48.0389 5.81633L47.0811 6.10367C47.2209 6.56988 47.453 7.00047 47.771 7.39417L48.549 6.76583ZM48.0402 5.82059C47.9336 5.45357 47.88 5.07389 47.88 4.68H46.88C46.88 5.16611 46.9464 5.63976 47.0798 6.0994L48.0402 5.82059ZM47.88 4.68C47.88 3.51937 48.2539 2.71373 48.947 2.17468L48.333 1.38532C47.3461 2.15294 46.88 3.28063 46.88 4.68H47.88ZM48.947 2.17468C49.6735 1.60962 50.6868 1.3 52.04 1.3V0.299999C50.5399 0.299999 49.2865 0.643716 48.333 1.38532L48.947 2.17468ZM52.04 1.3C53.1072 1.3 53.9666 1.4782 54.6395 1.80878L55.0805 0.911222C54.2334 0.495129 53.2128 0.299999 52.04 0.299999V1.3ZM54.6426 1.81028C55.3409 2.14737 55.8924 2.61775 56.3077 3.22292L57.1323 2.65708C56.6142 1.90225 55.9258 1.31929 55.0774 0.909723L54.6426 1.81028ZM56.393 2.56173L55.213 3.58173L55.867 4.33827L57.047 3.31827L56.393 2.56173ZM55.9375 3.65666C55.5116 3.09858 54.9958 2.64159 54.3926 2.28849L53.8874 3.15151C54.3775 3.43841 54.7951 3.80809 55.1425 4.26334L55.9375 3.65666ZM54.3926 2.28849C53.7461 1.91008 52.9441 1.74 52.02 1.74V2.74C52.8292 2.74 53.4405 2.88992 53.8874 3.15151L54.3926 2.28849ZM52.02 1.74C51.0115 1.74 50.158 1.95195 49.5302 2.44756L50.1498 3.23244C50.5354 2.92805 51.1352 2.74 52.02 2.74V1.74ZM49.5302 2.44756C48.8749 2.96485 48.58 3.72733 48.58 4.64H49.58C49.58 3.95267 49.7917 3.51515 50.1498 3.23244L49.5302 2.44756ZM48.58 4.64C48.58 5.37354 48.8021 6.01506 49.2745 6.52116L50.0055 5.83884C49.7312 5.54493 49.58 5.15979 49.58 4.64H48.58ZM49.2864 6.53355C49.7847 7.03181 50.5985 7.33416 51.6135 7.51246L51.7865 6.52754C50.8281 6.35917 50.2686 6.10153 49.9936 5.82645L49.2864 6.53355ZM51.6146 7.51265L53.1146 7.77265L53.2854 6.78735L51.7854 6.52735L51.6146 7.51265ZM53.1131 7.77239C53.7584 7.88626 54.2808 8.05351 54.6913 8.26464L55.1487 7.37536C54.6259 7.10649 54.0016 6.91374 53.2869 6.78761L53.1131 7.77239ZM54.6913 8.26464C55.1108 8.48037 55.4277 8.72841 55.6571 9.0016L56.4229 8.3584C56.0923 7.96492 55.6625 7.63963 55.1487 7.37536L54.6913 8.26464ZM55.6646 9.01031C55.911 9.29028 56.081 9.5989 56.1798 9.9394L57.1402 9.66059C56.999 9.17443 56.7557 8.73638 56.4154 8.34969L55.6646 9.01031ZM56.1798 9.9394C56.286 10.3051 56.34 10.6913 56.34 11.1H57.34C57.34 10.602 57.274 10.1216 57.1402 9.66059L56.1798 9.9394ZM56.34 11.1C56.34 12.2718 55.9598 13.1372 55.2341 13.7608L55.8859 14.5192C56.8669 13.6762 57.34 12.5148 57.34 11.1H56.34ZM55.2312 13.7633C54.5129 14.3904 53.4471 14.74 51.96 14.74V15.74C53.5929 15.74 54.9271 15.3562 55.8888 14.5167L55.2312 13.7633ZM59.7922 15L59.2937 15.0393L59.33 15.5H59.7922V15ZM58.6922 1.04V0.54H58.1512L58.1937 1.07928L58.6922 1.04ZM60.1922 1.04L60.6909 1.00384L60.6572 0.54H60.1922V1.04ZM60.7722 9.04L61.2709 9.00454L61.2709 9.00384L60.7722 9.04ZM61.0722 13.26L60.5734 13.2955L60.6065 13.76H61.0722V13.26ZM61.2322 13.26V13.76H61.6363L61.7211 13.3648L61.2322 13.26ZM63.0722 4.68V4.18H62.668L62.5833 4.57516L63.0722 4.68ZM64.9522 4.68L65.4411 4.57516L65.3563 4.18H64.9522V4.68ZM66.7922 13.26L66.3033 13.3648L66.388 13.76H66.7922V13.26ZM66.9522 13.26V13.76H67.4179L67.4509 13.2955L66.9522 13.26ZM67.2522 9.04L66.7535 9.00384L66.7534 9.00454L67.2522 9.04ZM67.8322 1.04V0.54H67.3671L67.3335 1.00384L67.8322 1.04ZM69.2922 1.04L69.7906 1.07928L69.8331 0.54H69.2922V1.04ZM68.1922 15V15.5H68.6543L68.6906 15.0393L68.1922 15ZM65.7722 15L65.2823 15.0999L65.3638 15.5H65.7722V15ZM64.0722 6.66L64.5621 6.56013L64.4806 6.16H64.0722V6.66ZM63.9122 6.66V6.16H63.5038L63.4223 6.56013L63.9122 6.66ZM62.2122 15V15.5H62.6206L62.7021 15.0999L62.2122 15ZM60.2906 14.9607L59.1906 1.00072L58.1937 1.07928L59.2937 15.0393L60.2906 14.9607ZM58.6922 1.54H60.1922V0.54H58.6922V1.54ZM59.6935 1.07615L60.2735 9.07615L61.2709 9.00384L60.6909 1.00384L59.6935 1.07615ZM60.2734 9.07546L60.5734 13.2955L61.5709 13.2245L61.2709 9.00454L60.2734 9.07546ZM61.0722 13.76H61.2322V12.76H61.0722V13.76ZM61.7211 13.3648L63.5611 4.78484L62.5833 4.57516L60.7433 13.1552L61.7211 13.3648ZM63.0722 5.18H64.9522V4.18H63.0722V5.18ZM64.4633 4.78484L66.3033 13.3648L67.2811 13.1552L65.4411 4.57516L64.4633 4.78484ZM66.7922 13.76H66.9522V12.76H66.7922V13.76ZM67.4509 13.2955L67.7509 9.07546L66.7534 9.00454L66.4534 13.2245L67.4509 13.2955ZM67.7509 9.07615L68.3309 1.07615L67.3335 1.00384L66.7535 9.00384L67.7509 9.07615ZM67.8322 1.54H69.2922V0.54H67.8322V1.54ZM68.7937 1.00072L67.6937 14.9607L68.6906 15.0393L69.7906 1.07928L68.7937 1.00072ZM68.1922 14.5H65.7722V15.5H68.1922V14.5ZM66.2621 14.9001L64.5621 6.56013L63.5823 6.75986L65.2823 15.0999L66.2621 14.9001ZM64.0722 6.16H63.9122V7.16H64.0722V6.16ZM63.4223 6.56013L61.7223 14.9001L62.7021 15.0999L64.4021 6.75986L63.4223 6.56013ZM62.2122 14.5H59.7922V15.5H62.2122V14.5ZM79.6044 15L79.125 15.1421L79.2311 15.5H79.6044V15ZM78.4244 11.02L78.9038 10.8779L78.7976 10.52H78.4244V11.02ZM73.5244 11.02V10.52H73.1511L73.045 10.8779L73.5244 11.02ZM72.3444 15V15.5H72.7176L72.8237 15.1421L72.3444 15ZM70.6044 15L70.1263 14.8534L69.9281 15.5H70.6044V15ZM74.8844 1.04V0.54H74.5147L74.4063 0.893438L74.8844 1.04ZM77.1044 1.04L77.5824 0.893438L77.4741 0.54H77.1044V1.04ZM81.3844 15V15.5H82.0606L81.8624 14.8534L81.3844 15ZM76.0644 2.82L76.5445 2.68038L76.4397 2.32H76.0644V2.82ZM75.8844 2.82V2.32H75.5091L75.4043 2.68038L75.8844 2.82ZM73.9244 9.56L73.4443 9.42038L73.2583 10.06H73.9244V9.56ZM78.0244 9.56V10.06H78.6905L78.5045 9.42038L78.0244 9.56ZM80.0838 14.8579L78.9038 10.8779L77.945 11.1621L79.125 15.1421L80.0838 14.8579ZM78.4244 10.52H73.5244V11.52H78.4244V10.52ZM73.045 10.8779L71.865 14.8579L72.8237 15.1421L74.0037 11.1621L73.045 10.8779ZM72.3444 14.5H70.6044V15.5H72.3444V14.5ZM71.0824 15.1466L75.3624 1.18656L74.4063 0.893438L70.1263 14.8534L71.0824 15.1466ZM74.8844 1.54H77.1044V0.54H74.8844V1.54ZM76.6263 1.18656L80.9063 15.1466L81.8624 14.8534L77.5824 0.893438L76.6263 1.18656ZM81.3844 14.5H79.6044V15.5H81.3844V14.5ZM76.0644 2.32H75.8844V3.32H76.0644V2.32ZM75.4043 2.68038L73.4443 9.42038L74.4045 9.69962L76.3645 2.95962L75.4043 2.68038ZM73.9244 10.06H78.0244V9.06H73.9244V10.06ZM78.5045 9.42038L76.5445 2.68038L75.5843 2.95962L77.5443 9.69962L78.5045 9.42038ZM83.7766 15H83.2766V15.5H83.7766V15ZM83.7766 1.04V0.54H83.2766V1.04H83.7766ZM91.8166 2.1L92.1768 1.75331L92.1768 1.75331L91.8166 2.1ZM91.8166 8.02L91.4563 7.67331L91.4563 7.67331L91.8166 8.02ZM85.4566 9.08V8.58H84.9566V9.08H85.4566ZM85.4566 15V15.5H85.9566V15H85.4566ZM85.4566 7.62H84.9566V8.12H85.4566V7.62ZM90.4566 7.1L90.7903 7.47229L90.791 7.47165L90.4566 7.1ZM90.4566 3.04L90.1159 3.40595L90.1224 3.41201L90.1291 3.41784L90.4566 3.04ZM85.4566 2.5V2H84.9566V2.5H85.4566ZM84.2766 15V1.04H83.2766V15H84.2766ZM83.7766 1.54H88.8566V0.54H83.7766V1.54ZM88.8566 1.54C90.0592 1.54 90.8979 1.86637 91.4563 2.44669L92.1768 1.75331C91.3753 0.920291 90.2406 0.54 88.8566 0.54V1.54ZM91.4563 2.44669C92.0227 3.03536 92.3366 3.88346 92.3366 5.06H93.3366C93.3366 3.7032 92.9704 2.57797 92.1768 1.75331L91.4563 2.44669ZM92.3366 5.06C92.3366 6.23654 92.0227 7.08464 91.4563 7.67331L92.1768 8.36669C92.9704 7.54203 93.3366 6.4168 93.3366 5.06H92.3366ZM91.4563 7.67331C90.8979 8.25362 90.0592 8.58 88.8566 8.58V9.58C90.2406 9.58 91.3753 9.19971 92.1768 8.36669L91.4563 7.67331ZM88.8566 8.58H85.4566V9.58H88.8566V8.58ZM84.9566 9.08V15H85.9566V9.08H84.9566ZM85.4566 14.5H83.7766V15.5H85.4566V14.5ZM85.4566 8.12H88.8166V7.12H85.4566V8.12ZM88.8166 8.12C89.6016 8.12 90.2833 7.92688 90.7903 7.47228L90.1228 6.72771C89.8565 6.96645 89.4449 7.12 88.8166 7.12V8.12ZM90.791 7.47165C91.3186 6.99684 91.5566 6.34217 91.5566 5.58H90.5566C90.5566 6.1245 90.3945 6.48316 90.1221 6.72835L90.791 7.47165ZM91.5566 5.58V4.54H90.5566V5.58H91.5566ZM91.5566 4.54C91.5566 3.77855 91.3187 3.12555 90.784 2.66215L90.1291 3.41784C90.3944 3.64779 90.5566 3.99479 90.5566 4.54H91.5566ZM90.7973 2.67405C90.2905 2.2022 89.6061 2 88.8166 2V3C89.4404 3 89.8493 3.1578 90.1159 3.40595L90.7973 2.67405ZM88.8166 2H85.4566V3H88.8166V2ZM84.9566 2.5V7.62H85.9566V2.5H84.9566Z" fill="white"/>
</svg>
